<?xml version="1.0" encoding="iso-8859-1"?>
<!-- Generator: Adobe Illustrator 18.1.1, SVG Export Plug-In . SVG Version: 6.00 Build 0)  -->
<svg version="1.1" id="Capa_1" xmlns="http://www.w3.org/2000/svg" xmlns:xlink="http://www.w3.org/1999/xlink" x="0px" y="0px"
	 viewBox="0 0 16.253 16.253" style="enable-background:new 0 0 16.253 16.253;" xml:space="preserve">
<g>
	<g>
		<g>
			<path style="fill:#030104;" d="M9.235,16.253H6.994c-0.568,0-1.031-0.463-1.031-1.031V3.831c0-0.568,0.462-1.03,1.031-1.03h2.241
				c0.568,0,1.03,0.462,1.03,1.03v11.391C10.265,15.79,9.803,16.253,9.235,16.253z M7.463,14.753h1.302V4.301H7.463V14.753z"/>
		</g>
		<g>
			<path style="fill:#030104;" d="M3.985,16.253H1.744c-0.568,0-1.031-0.463-1.031-1.031V8.331c0-0.568,0.462-1.03,1.031-1.03h2.241
				c0.568,0,1.03,0.462,1.03,1.03v6.891C5.015,15.79,4.553,16.253,3.985,16.253z M2.213,14.753h1.302V8.801H2.213V14.753z"/>
		</g>
		<g>
			<path style="fill:#030104;" d="M14.51,16.253h-2.24c-0.568,0-1.03-0.463-1.03-1.031V1.03c0-0.568,0.462-1.03,1.03-1.03h2.24
				c0.567,0,1.029,0.462,1.029,1.03v14.192C15.54,15.79,15.078,16.253,14.51,16.253z M12.74,14.753h1.3V1.5h-1.3V14.753z"/>
		</g>
	</g>
</g>
<g>
</g>
<g>
</g>
<g>
</g>
<g>
</g>
<g>
</g>
<g>
</g>
<g>
</g>
<g>
</g>
<g>
</g>
<g>
</g>
<g>
</g>
<g>
</g>
<g>
</g>
<g>
</g>
<g>
</g>
</svg>
