<?xml version="1.0" encoding="iso-8859-1"?>
<!-- Generator: Adobe Illustrator 19.0.0, SVG Export Plug-In . SVG Version: 6.00 Build 0)  -->
<svg version="1.1" id="Layer_1" xmlns="http://www.w3.org/2000/svg" xmlns:xlink="http://www.w3.org/1999/xlink" x="0px" y="0px"
	 viewBox="0 0 368.418 368.418" style="enable-background:new 0 0 368.418 368.418;" xml:space="preserve">
<g id="XMLID_1146_">
	<path id="XMLID_1147_" style="fill:#FF5959;" d="M207.304,26.714c-12.941,0-21.152,14.427-23.095,14.427
		c-1.699,0-9.573-14.427-23.095-14.427c-13.152,0-23.892,10.847-24.595,23.982c-0.396,7.42,1.995,13.066,5.366,18.181
		c6.733,10.218,36.176,34.817,42.367,34.817c6.325,0,35.502-24.51,42.28-34.817c3.379-5.138,5.763-10.761,5.366-18.181
		C231.196,37.561,220.457,26.714,207.304,26.714"/>
	<g id="XMLID_1150_">
		<path id="XMLID_1149_" style="fill:#FFFEB9;" d="M273.114,173.864H95.305v-58.826c0-13.057,10.585-23.643,23.643-23.643h130.524
			c13.057,0,23.643,10.585,23.643,23.643L273.114,173.864L273.114,173.864z"/>
	</g>
	<g id="XMLID_1153_">
		<path id="XMLID_1152_" style="fill:#FF5959;" d="M312.943,242.53H55.476v-58.826c0-13.057,10.585-23.643,23.643-23.643H289.3
			c13.057,0,23.642,10.585,23.642,23.643v58.826H312.943z"/>
	</g>
	<g id="XMLID_1156_">
		<path id="XMLID_1155_" style="fill:#FFFEB9;" d="M342.913,311.196H25.505V252.37c0-13.057,10.585-23.643,23.643-23.643h270.123
			c13.057,0,23.642,10.585,23.642,23.643V311.196z"/>
	</g>
	<g id="XMLID_1159_">
		<path id="XMLID_1158_" style="fill:#5FD2DB;" d="M346.568,341.704H21.851C9.783,341.704,0,331.922,0,319.854l0,0
			c0-12.068,9.783-21.851,21.851-21.851h324.716c12.068,0,21.851,9.783,21.851,21.851l0,0
			C368.419,331.922,358.636,341.704,346.568,341.704z"/>
	</g>
	<g id="XMLID_1160_">
		<circle id="XMLID_1161_" style="fill:#FFFEB9;" cx="162.332" cy="194.204" r="15.791"/>
		<circle id="XMLID_1162_" style="fill:#FFFEB9;" cx="118.576" cy="194.204" r="15.791"/>
		<circle id="XMLID_1163_" style="fill:#FFFEB9;" cx="206.087" cy="194.204" r="15.791"/>
		<circle id="XMLID_1164_" style="fill:#FFFEB9;" cx="249.843" cy="194.204" r="15.791"/>
	</g>
</g>
<g>
</g>
<g>
</g>
<g>
</g>
<g>
</g>
<g>
</g>
<g>
</g>
<g>
</g>
<g>
</g>
<g>
</g>
<g>
</g>
<g>
</g>
<g>
</g>
<g>
</g>
<g>
</g>
<g>
</g>
</svg>
