<?xml version="1.0" encoding="iso-8859-1"?>
<!-- Generator: Adobe Illustrator 19.0.0, SVG Export Plug-In . SVG Version: 6.00 Build 0)  -->
<svg version="1.1" id="Layer_1" xmlns="http://www.w3.org/2000/svg" xmlns:xlink="http://www.w3.org/1999/xlink" x="0px" y="0px"
	 viewBox="0 0 512 512" style="enable-background:new 0 0 512 512;" xml:space="preserve">
<g>
	<g>
		<path d="M230.042,282.578c-14.501-14.501-38.021-14.425-52.523,0.076L75.622,384.702v-30.463
			c0-20.507-16.684-37.191-37.191-37.191c-20.507,0-37.191,16.684-37.191,37.191v120.252c0,20.507,16.382,36.889,36.889,36.889
			H158.38c20.507,0,37.191-16.684,37.191-37.191s-16.684-37.191-37.191-37.191h-30.463l102.049-101.898
			C244.466,320.598,244.541,297.078,230.042,282.578z M212.434,317.717L89.222,440.931c-3.544,3.546-4.606,8.726-2.688,13.359
			c1.919,4.633,6.439,7.503,11.454,7.503h60.392c6.836,0,12.397,5.561,12.397,12.397s-5.561,12.397-12.397,12.397H38.128
			c-6.836,0-12.095-5.259-12.095-12.095V354.24c0-6.836,5.561-12.397,12.397-12.397s12.397,5.561,12.397,12.397v60.392
			c0,5.013,2.87,9.535,7.502,11.454c4.633,1.919,9.89,0.857,13.435-2.686l123.174-123.212c4.832-4.834,12.681-4.834,17.513,0
			C217.286,305.019,217.268,312.883,212.434,317.717z"/>
	</g>
</g>
<g>
	<g>
		<path d="M473.569,317.086c-20.507,0-37.191,16.684-37.191,37.191v30.463L334.87,282.692
			c-14.501-14.502-37.826-14.586-52.327-0.084c-14.501,14.501-14.229,38.011,0.27,52.512l102.049,101.879h-30.463
			c-20.507,0-37.191,16.684-37.191,37.191s16.684,37.191,37.191,37.191h120.252c20.507,0,36.109-16.344,36.109-36.852V354.277
			C510.76,333.77,494.076,317.086,473.569,317.086z M485.967,474.528c0,6.837-4.479,12.057-11.315,12.057H354.401
			c-6.836,0-12.397-5.561-12.397-12.397s5.561-12.397,12.397-12.397h60.392c5.015,0,9.535-2.85,11.454-7.483
			c1.918-4.632,0.857-9.794-2.688-13.339L300.347,317.756c-4.835-4.834-4.902-12.698-0.067-17.532
			c4.832-4.834,12.633-4.834,17.465,0l123.077,123.212c3.544,3.543,8.607,4.606,13.24,2.686c4.632-1.919,7.111-6.44,7.111-11.454
			v-60.392c0-6.836,5.561-12.397,12.397-12.397c6.836,0,12.397,5.561,12.397,12.397V474.528z"/>
	</g>
</g>
<g>
	<g>
		<path d="M474.481,0.619H354.23c-20.507,0-37.191,16.684-37.191,37.191s16.684,37.191,37.191,37.191h30.463L282.644,177.223
			c-14.5,14.501-14.418,38.182,0.082,52.683c14.501,14.502,38.178,14.588,52.679,0.087l102.213-102.049v30.463
			c0,20.507,16.684,37.191,37.191,37.191S512,178.914,512,158.407V38.155C512,17.648,494.989,0.619,474.481,0.619z M487.206,158.406
			c0,6.836-5.561,12.397-12.397,12.397c-6.836,0-12.397-5.561-12.397-12.397V98.015c0-5.013-3.185-9.535-7.816-11.454
			c-4.633-1.919-10.048-0.857-13.593,2.686L317.749,212.46c-4.832,4.834-12.721,4.834-17.553,0
			c-4.834-4.832-4.854-12.697-0.02-17.531L423.388,71.715c3.544-3.546,4.606-9.05,2.688-13.683
			c-1.919-4.633-6.439-7.826-11.454-7.826H354.23c-6.836,0-12.397-5.561-12.397-12.397s5.561-12.397,12.397-12.397h120.252
			c6.836,0,12.724,5.906,12.724,12.742V158.406z"/>
	</g>
</g>
<g>
	<g>
		<path d="M230.062,177.237L128.012,75.002h30.463c20.507,0,37.191-16.684,37.191-37.191S178.983,0.619,158.476,0.619H38.224
			C17.717,0.619,0,17.676,0,38.184v120.252c0,20.507,16.684,37.191,37.191,37.191s37.191-16.684,37.191-37.191v-30.463
			l102.565,102.049c14.501,14.501,38.355,14.408,52.856-0.094C244.303,215.426,244.561,191.738,230.062,177.237z M212.465,212.488
			c-4.834,4.834-12.765,4.834-17.598,0L71.526,89.276c-3.546-3.543-9.137-4.606-13.769-2.686c-4.632,1.919-8.168,6.44-8.168,11.454
			v60.392c0,6.836-5.561,12.397-12.397,12.397s-12.397-5.561-12.397-12.397V38.184c0-6.836,6.594-12.77,13.43-12.77h120.252
			c6.836,0,12.397,5.561,12.397,12.397s-5.561,12.397-12.397,12.397H98.083c-5.015,0-9.535,3.207-11.454,7.84
			c-1.918,4.632-0.857,10.151,2.688,13.696l123.211,123.212C217.363,199.79,217.299,207.654,212.465,212.488z"/>
	</g>
</g>
<g>
</g>
<g>
</g>
<g>
</g>
<g>
</g>
<g>
</g>
<g>
</g>
<g>
</g>
<g>
</g>
<g>
</g>
<g>
</g>
<g>
</g>
<g>
</g>
<g>
</g>
<g>
</g>
<g>
</g>
</svg>
